<?xml version="1.0" encoding="UTF-8" standalone="no"?><svg xmlns="http://www.w3.org/2000/svg" xmlns:xlink="http://www.w3.org/1999/xlink" contentScriptType="application/ecmascript" contentStyleType="text/css" height="299px" preserveAspectRatio="none" style="width:299px;height:299px;" version="1.1" viewBox="0 0 299 299" width="299px" zoomAndPan="magnify"><defs><filter height="300%" id="fdcmoldwio4jb" width="300%" x="-1" y="-1"><feGaussianBlur result="blurOut" stdDeviation="2.0"/><feColorMatrix in="blurOut" result="blurOut2" type="matrix" values="0 0 0 0 0 0 0 0 0 0 0 0 0 0 0 0 0 0 .4 0"/><feOffset dx="4.0" dy="4.0" in="blurOut2" result="blurOut3"/><feBlend in="SourceGraphic" in2="blurOut3" mode="normal"/></filter></defs><g><text fill="#000000" font-family="sans-serif" font-size="18" lengthAdjust="spacingAndGlyphs" textLength="209" x="47.25" y="28.708">Register Chat ID Scenario</text><line style="stroke:#A80036;stroke-width:1.0;stroke-dasharray:5.0,5.0;" x1="52" x2="52" y1="123.25" y2="215.5156"/><line style="stroke:#A80036;stroke-width:1.0;stroke-dasharray:5.0,5.0;" x1="130" x2="130" y1="123.25" y2="215.5156"/><line style="stroke:#A80036;stroke-width:1.0;stroke-dasharray:5.0,5.0;" x1="198" x2="198" y1="123.25" y2="215.5156"/><line style="stroke:#A80036;stroke-width:1.0;stroke-dasharray:5.0,5.0;" x1="265.5" x2="265.5" y1="123.25" y2="215.5156"/><text fill="#000000" font-family="sans-serif" font-size="14" lengthAdjust="spacingAndGlyphs" textLength="89" x="5" y="119.9482">TelegramUser</text><ellipse cx="52.5" cy="49.9531" fill="#FEFECE" filter="url(#fdcmoldwio4jb)" rx="8" ry="8" style="stroke:#A80036;stroke-width:2.0;"/><path d="M52.5,57.9531 L52.5,84.9531 M39.5,65.9531 L65.5,65.9531 M52.5,84.9531 L39.5,99.9531 M52.5,84.9531 L65.5,99.9531 " fill="none" filter="url(#fdcmoldwio4jb)" style="stroke:#A80036;stroke-width:2.0;"/><text fill="#000000" font-family="sans-serif" font-size="14" lengthAdjust="spacingAndGlyphs" textLength="89" x="5" y="227.5107">TelegramUser</text><ellipse cx="52.5" cy="240.8125" fill="#FEFECE" filter="url(#fdcmoldwio4jb)" rx="8" ry="8" style="stroke:#A80036;stroke-width:2.0;"/><path d="M52.5,248.8125 L52.5,275.8125 M39.5,256.8125 L65.5,256.8125 M52.5,275.8125 L39.5,290.8125 M52.5,275.8125 L65.5,290.8125 " fill="none" filter="url(#fdcmoldwio4jb)" style="stroke:#A80036;stroke-width:2.0;"/><rect fill="#FEFECE" filter="url(#fdcmoldwio4jb)" height="30.2969" style="stroke:#A80036;stroke-width:1.5;" width="36" x="110" y="87.9531"/><text fill="#000000" font-family="sans-serif" font-size="14" lengthAdjust="spacingAndGlyphs" textLength="22" x="117" y="107.9482">Bot</text><rect fill="#FEFECE" filter="url(#fdcmoldwio4jb)" height="30.2969" style="stroke:#A80036;stroke-width:1.5;" width="36" x="110" y="214.5156"/><text fill="#000000" font-family="sans-serif" font-size="14" lengthAdjust="spacingAndGlyphs" textLength="22" x="117" y="234.5107">Bot</text><rect fill="#FEFECE" filter="url(#fdcmoldwio4jb)" height="30.2969" style="stroke:#A80036;stroke-width:1.5;" width="40" x="176" y="87.9531"/><text fill="#000000" font-family="sans-serif" font-size="14" lengthAdjust="spacingAndGlyphs" textLength="26" x="183" y="107.9482">Hub</text><rect fill="#FEFECE" filter="url(#fdcmoldwio4jb)" height="30.2969" style="stroke:#A80036;stroke-width:1.5;" width="40" x="176" y="214.5156"/><text fill="#000000" font-family="sans-serif" font-size="14" lengthAdjust="spacingAndGlyphs" textLength="26" x="183" y="234.5107">Hub</text><text fill="#000000" font-family="sans-serif" font-size="14" lengthAdjust="spacingAndGlyphs" textLength="59" x="233.5" y="119.9482">Database</text><path d="M248,70.9531 C248,60.9531 266,60.9531 266,60.9531 C266,60.9531 284,60.9531 284,70.9531 L284,96.9531 C284,106.9531 266,106.9531 266,106.9531 C266,106.9531 248,106.9531 248,96.9531 L248,70.9531 " fill="#FEFECE" filter="url(#fdcmoldwio4jb)" style="stroke:#000000;stroke-width:1.5;"/><path d="M248,70.9531 C248,80.9531 266,80.9531 266,80.9531 C266,80.9531 284,80.9531 284,70.9531 " fill="none" style="stroke:#000000;stroke-width:1.5;"/><text fill="#000000" font-family="sans-serif" font-size="14" lengthAdjust="spacingAndGlyphs" textLength="59" x="233.5" y="227.5107">Database</text><path d="M248,240.8125 C248,230.8125 266,230.8125 266,230.8125 C266,230.8125 284,230.8125 284,240.8125 L284,266.8125 C284,276.8125 266,276.8125 266,276.8125 C266,276.8125 248,276.8125 248,266.8125 L248,240.8125 " fill="#FEFECE" filter="url(#fdcmoldwio4jb)" style="stroke:#000000;stroke-width:1.5;"/><path d="M248,240.8125 C248,250.8125 266,250.8125 266,250.8125 C266,250.8125 284,250.8125 284,240.8125 " fill="none" style="stroke:#000000;stroke-width:1.5;"/><polygon fill="#A80036" points="118,135.25,128,139.25,118,143.25,122,139.25" style="stroke:#A80036;stroke-width:1.0;"/><line style="stroke:#A80036;stroke-width:1.0;" x1="52.5" x2="124" y1="139.25" y2="139.25"/><polygon fill="#A80036" points="186,164.3828,196,168.3828,186,172.3828,190,168.3828" style="stroke:#A80036;stroke-width:1.0;"/><line style="stroke:#A80036;stroke-width:1.0;" x1="130" x2="192" y1="168.3828" y2="168.3828"/><text fill="#000000" font-family="sans-serif" font-size="13" lengthAdjust="spacingAndGlyphs" textLength="44" x="137" y="163.3169">Chat ID</text><polygon fill="#A80036" points="254,193.5156,264,197.5156,254,201.5156,258,197.5156" style="stroke:#A80036;stroke-width:1.0;"/><line style="stroke:#A80036;stroke-width:1.0;" x1="198" x2="260" y1="197.5156" y2="197.5156"/><text fill="#000000" font-family="sans-serif" font-size="13" lengthAdjust="spacingAndGlyphs" textLength="44" x="205" y="192.4497">Chat ID</text><!--MD5=[db1cc5b6a425e185ca49f8e785cf0110]
@startuml
title Register Chat ID Scenario
actor       TelegramUser as user
participant Bot as bot
participant Hub as hub
database    Database    as db

user -> bot
bot -> hub: Chat ID
hub -> db: Chat ID
@enduml

PlantUML version 1.2020.23(Sun Dec 13 19:14:58 GMT 2020)
(GPL source distribution)
Java Runtime: OpenJDK Runtime Environment
JVM: OpenJDK 64-Bit Server VM
Default Encoding: UTF-8
Language: en
Country: US
--></g></svg>